<svg width="25" height="31" viewBox="0 0 25 31" fill="none" xmlns="http://www.w3.org/2000/svg">
<path d="M9.6063 27.28C9.6063 28.8181 10.8259 30.0625 12.3333 30.0625C13.8407 30.0625 15.0604 28.8181 15.0604 27.28H9.6063ZM12.3333 6.29215C16.1156 6.29215 19.1852 9.42424 19.1852 13.2834V23.0712H5.48148V13.2834C5.48148 9.42424 8.55111 6.29215 12.3333 6.29215ZM12.3333 0C11.1959 0 10.2778 0.936831 10.2778 2.09738V3.73334C5.97481 4.68416 2.74074 8.59927 2.74074 13.2834V21.673L0 24.4695V25.8677H24.6667V24.4695L21.9259 21.673V13.2834C21.9259 8.59927 18.6919 4.68416 14.3889 3.73334V2.09738C14.3889 0.936831 13.4707 0 12.3333 0Z" fill="#323232"/>
</svg>
