<svg width="143" height="33" viewBox="0 0 143 33" fill="none" xmlns="http://www.w3.org/2000/svg">
<path d="M0.656 26V3.6H10.832C13.264 3.6 15.408 4.06933 17.264 5.008C19.12 5.92533 20.5707 7.216 21.616 8.88C22.6613 10.544 23.184 12.5173 23.184 14.8C23.184 17.0613 22.6613 19.0347 21.616 20.72C20.5707 22.384 19.12 23.6853 17.264 24.624C15.408 25.5413 13.264 26 10.832 26H0.656ZM5.84 21.744H10.576C12.0693 21.744 13.36 21.4667 14.448 20.912C15.5573 20.336 16.4107 19.5253 17.008 18.48C17.6267 17.4347 17.936 16.208 17.936 14.8C17.936 13.3707 17.6267 12.144 17.008 11.12C16.4107 10.0747 15.5573 9.27467 14.448 8.72C13.36 8.144 12.0693 7.856 10.576 7.856H5.84V21.744ZM37.3815 26V22.64L37.0615 21.904V15.888C37.0615 14.8213 36.7308 13.9893 36.0695 13.392C35.4295 12.7947 34.4375 12.496 33.0935 12.496C32.1762 12.496 31.2695 12.6453 30.3735 12.944C29.4988 13.2213 28.7522 13.6053 28.1335 14.096L26.3415 10.608C27.2802 9.94667 28.4108 9.43467 29.7335 9.072C31.0562 8.70933 32.4002 8.528 33.7655 8.528C36.3895 8.528 38.4268 9.14667 39.8775 10.384C41.3282 11.6213 42.0535 13.552 42.0535 16.176V26H37.3815ZM32.1335 26.256C30.7895 26.256 29.6375 26.032 28.6775 25.584C27.7175 25.1147 26.9815 24.4853 26.4695 23.696C25.9575 22.9067 25.7015 22.0213 25.7015 21.04C25.7015 20.016 25.9468 19.12 26.4375 18.352C26.9495 17.584 27.7495 16.9867 28.8375 16.56C29.9255 16.112 31.3442 15.888 33.0935 15.888H37.6695V18.8H33.6375C32.4642 18.8 31.6535 18.992 31.2055 19.376C30.7788 19.76 30.5655 20.24 30.5655 20.816C30.5655 21.456 30.8108 21.968 31.3015 22.352C31.8135 22.7147 32.5068 22.896 33.3815 22.896C34.2135 22.896 34.9602 22.704 35.6215 22.32C36.2828 21.9147 36.7628 21.328 37.0615 20.56L37.8295 22.864C37.4668 23.9733 36.8055 24.816 35.8455 25.392C34.8855 25.968 33.6482 26.256 32.1335 26.256ZM48.515 32.464C47.619 32.464 46.7337 32.3253 45.859 32.048C44.9843 31.7707 44.2697 31.3867 43.715 30.896L45.539 27.344C45.923 27.6853 46.3603 27.952 46.851 28.144C47.363 28.336 47.8643 28.432 48.355 28.432C49.059 28.432 49.6137 28.2613 50.019 27.92C50.4457 27.6 50.8297 27.056 51.171 26.288L52.067 24.176L52.451 23.632L58.627 8.784H63.427L55.651 27.056C55.0963 28.4427 54.4563 29.5307 53.731 30.32C53.027 31.1093 52.2377 31.664 51.363 31.984C50.5097 32.304 49.5603 32.464 48.515 32.464ZM51.459 26.672L43.779 8.784H48.931L54.883 23.184L51.459 26.672ZM65.544 26V8.784H70.536V26H65.544ZM68.04 6.384C67.1227 6.384 66.376 6.11733 65.8 5.584C65.224 5.05067 64.936 4.38933 64.936 3.6C64.936 2.81067 65.224 2.14933 65.8 1.616C66.376 1.08267 67.1227 0.815998 68.04 0.815998C68.9573 0.815998 69.704 1.072 70.28 1.584C70.856 2.07467 71.144 2.71467 71.144 3.504C71.144 4.336 70.856 5.02933 70.28 5.584C69.7253 6.11733 68.9787 6.384 68.04 6.384ZM85.713 8.528C87.0783 8.528 88.2943 8.80533 89.361 9.36C90.449 9.89333 91.3023 10.7253 91.921 11.856C92.5397 12.9653 92.849 14.3947 92.849 16.144V26H87.857V16.912C87.857 15.5253 87.5477 14.5013 86.929 13.84C86.3317 13.1787 85.4783 12.848 84.369 12.848C83.5797 12.848 82.865 13.0187 82.225 13.36C81.6063 13.68 81.1157 14.1813 80.753 14.864C80.4117 15.5467 80.241 16.4213 80.241 17.488V26H75.249V8.784H80.017V13.552L79.121 12.112C79.7397 10.96 80.625 10.0747 81.777 9.456C82.929 8.83733 84.241 8.528 85.713 8.528Z" fill="black"/>
<path d="M107.758 26.384C104.579 26.384 102.094 25.4987 100.302 23.728C98.51 21.9573 97.614 19.4293 97.614 16.144V3.6H102.798V15.952C102.798 18.0853 103.235 19.6213 104.11 20.56C104.985 21.4987 106.211 21.968 107.79 21.968C109.369 21.968 110.595 21.4987 111.47 20.56C112.345 19.6213 112.782 18.0853 112.782 15.952V3.6H117.902V16.144C117.902 19.4293 117.006 21.9573 115.214 23.728C113.422 25.4987 110.937 26.384 107.758 26.384ZM123.105 26V3.6H132.801C134.806 3.6 136.534 3.93067 137.985 4.592C139.435 5.232 140.555 6.16 141.345 7.376C142.134 8.592 142.529 10.0427 142.529 11.728C142.529 13.392 142.134 14.832 141.345 16.048C140.555 17.264 139.435 18.2027 137.985 18.864C136.534 19.504 134.806 19.824 132.801 19.824H125.985L128.289 17.488V26H123.105ZM128.289 18.064L125.985 15.6H132.513C134.113 15.6 135.307 15.2587 136.097 14.576C136.886 13.8933 137.281 12.944 137.281 11.728C137.281 10.4907 136.886 9.53067 136.097 8.848C135.307 8.16533 134.113 7.824 132.513 7.824H125.985L128.289 5.36V18.064Z" fill="#1877F2"/>
</svg>
