<svg width="32" height="27" viewBox="0 0 32 27" fill="none" xmlns="http://www.w3.org/2000/svg">
<path d="M2 7C2 4.41737 2.66667 2 6.66667 2H25.6667C28.6667 2 30 4.33333 30 7V17.2066C30 20.3628 27.9998 21.798 24.9998 21.798H13.6667L9.6665 24.6667L9.33317 21.5105H6.66667C3.6665 21.5099 1.99984 19.7889 2 17.2066V7Z" stroke="#323232" stroke-width="2.5"/>
<g filter="url(#filter0_d_422_54)">
<mask id="path-2-inside-1_422_54" fill="white">
<ellipse cx="9.13387" cy="11.8" rx="1.80001" ry="1.79997"/>
</mask>
<ellipse cx="9.13387" cy="11.8" rx="1.80001" ry="1.79997" fill="white"/>
<path d="M8.43389 11.8C8.43389 11.4133 8.74734 11.0999 9.13387 11.0999V16.0999C11.5086 16.0999 13.4339 14.1748 13.4339 11.8H8.43389ZM9.13387 11.0999C9.52041 11.0999 9.83386 11.4133 9.83386 11.8H4.83386C4.83386 14.1748 6.7591 16.0999 9.13387 16.0999V11.0999ZM9.83386 11.8C9.83386 12.1866 9.52041 12.5 9.13387 12.5V7.5C6.7591 7.5 4.83386 9.4251 4.83386 11.8H9.83386ZM9.13387 12.5C8.74734 12.5 8.43389 12.1866 8.43389 11.8H13.4339C13.4339 9.4251 11.5086 7.5 9.13387 7.5V12.5Z" fill="#323232" mask="url(#path-2-inside-1_422_54)"/>
<mask id="path-4-inside-2_422_54" fill="white">
<ellipse cx="16.3343" cy="11.7997" rx="1.80001" ry="1.79997"/>
</mask>
<ellipse cx="16.3343" cy="11.7997" rx="1.80001" ry="1.79997" fill="white"/>
<path d="M15.6343 11.7997C15.6343 11.413 15.9478 11.0997 16.3343 11.0997V16.0997C18.7091 16.0997 20.6343 14.1746 20.6343 11.7997H15.6343ZM16.3343 11.0997C16.7208 11.0997 17.0343 11.413 17.0343 11.7997H12.0343C12.0343 14.1746 13.9595 16.0997 16.3343 16.0997V11.0997ZM17.0343 11.7997C17.0343 12.1864 16.7208 12.4998 16.3343 12.4998V7.49976C13.9595 7.49976 12.0343 9.42486 12.0343 11.7997H17.0343ZM16.3343 12.4998C15.9478 12.4998 15.6343 12.1864 15.6343 11.7997H20.6343C20.6343 9.42486 18.7091 7.49976 16.3343 7.49976V12.4998Z" fill="#323232" mask="url(#path-4-inside-2_422_54)"/>
<mask id="path-6-inside-3_422_54" fill="white">
<ellipse cx="23.5329" cy="11.7997" rx="1.80001" ry="1.79997"/>
</mask>
<ellipse cx="23.5329" cy="11.7997" rx="1.80001" ry="1.79997" fill="white"/>
<path d="M22.8329 11.7997C22.8329 11.413 23.1464 11.0997 23.5329 11.0997V16.0997C25.9077 16.0997 27.8329 14.1746 27.8329 11.7997H22.8329ZM23.5329 11.0997C23.9195 11.0997 24.2329 11.413 24.2329 11.7997H19.2329C19.2329 14.1746 21.1581 16.0997 23.5329 16.0997V11.0997ZM24.2329 11.7997C24.2329 12.1864 23.9195 12.4998 23.5329 12.4998V7.49976C21.1581 7.49976 19.2329 9.42486 19.2329 11.7997H24.2329ZM23.5329 12.4998C23.1464 12.4998 22.8329 12.1864 22.8329 11.7997H27.8329C27.8329 9.42486 25.9077 7.49976 23.5329 7.49976V12.4998Z" fill="#323232" mask="url(#path-6-inside-3_422_54)"/>
</g>
<path d="M2 7C2 4.41737 2.66667 2 6.66667 2H25.6667C28.6667 2 30 4.33333 30 7V17.2066C30 20.3628 27.9998 21.798 24.9998 21.798H13.6667L9.6665 24.6667L9.33317 21.5105H6.66667C3.6665 21.5099 1.99984 19.7889 2 17.2066V7Z" fill="white" stroke="#323232" stroke-width="2.5"/>
<mask id="path-9-inside-4_422_54" fill="white">
<ellipse cx="8.78619" cy="11.7864" rx="1.78619" ry="1.78617"/>
</mask>
<ellipse cx="8.78619" cy="11.7864" rx="1.78619" ry="1.78617" fill="#323232"/>
<path d="M8.07238 11.7864C8.07238 11.3921 8.39198 11.0725 8.78619 11.0725V16.0725C11.1534 16.0725 13.0724 14.1536 13.0724 11.7864H8.07238ZM8.78619 11.0725C9.1804 11.0725 9.5 11.3921 9.5 11.7864H4.5C4.5 14.1536 6.41901 16.0725 8.78619 16.0725V11.0725ZM9.5 11.7864C9.5 12.1806 9.1804 12.5002 8.78619 12.5002V7.50018C6.41901 7.50018 4.5 9.41915 4.5 11.7864H9.5ZM8.78619 12.5002C8.39198 12.5002 8.07238 12.1806 8.07238 11.7864H13.0724C13.0724 9.41915 11.1534 7.50018 8.78619 7.50018V12.5002Z" fill="#323232" mask="url(#path-9-inside-4_422_54)"/>
<mask id="path-11-inside-5_422_54" fill="white">
<ellipse cx="15.9321" cy="11.7862" rx="1.78619" ry="1.78617"/>
</mask>
<ellipse cx="15.9321" cy="11.7862" rx="1.78619" ry="1.78617" fill="#323232"/>
<path d="M15.2183 11.7862C15.2183 11.3919 15.5379 11.0723 15.9321 11.0723V16.0723C18.2992 16.0723 20.2183 14.1534 20.2183 11.7862H15.2183ZM15.9321 11.0723C16.3263 11.0723 16.6459 11.3919 16.6459 11.7862H11.6459C11.6459 14.1534 13.5649 16.0723 15.9321 16.0723V11.0723ZM16.6459 11.7862C16.6459 12.1804 16.3263 12.5 15.9321 12.5V7.5C13.5649 7.5 11.6459 9.41897 11.6459 11.7862H16.6459ZM15.9321 12.5C15.5379 12.5 15.2183 12.1804 15.2183 11.7862H20.2183C20.2183 9.41897 18.2992 7.5 15.9321 7.5V12.5Z" fill="#323232" mask="url(#path-11-inside-5_422_54)"/>
<path d="M23.7943 11.7862C23.7943 12.0823 23.5543 12.3223 23.2581 12.3223C22.962 12.3223 22.7219 12.0823 22.7219 11.7862C22.7219 11.4901 22.962 11.25 23.2581 11.25C23.5543 11.25 23.7943 11.4901 23.7943 11.7862Z" fill="#323232" stroke="#323232" stroke-width="2.5"/>
<defs>
<filter id="filter0_d_422_54" x="3.33386" y="9.99976" width="25.999" height="11.6002" filterUnits="userSpaceOnUse" color-interpolation-filters="sRGB">
<feFlood flood-opacity="0" result="BackgroundImageFix"/>
<feColorMatrix in="SourceAlpha" type="matrix" values="0 0 0 0 0 0 0 0 0 0 0 0 0 0 0 0 0 0 127 0" result="hardAlpha"/>
<feOffset dy="4"/>
<feGaussianBlur stdDeviation="2"/>
<feColorMatrix type="matrix" values="0 0 0 0 0 0 0 0 0 0 0 0 0 0 0 0 0 0 0.25 0"/>
<feBlend mode="normal" in2="BackgroundImageFix" result="effect1_dropShadow_422_54"/>
<feBlend mode="normal" in="SourceGraphic" in2="effect1_dropShadow_422_54" result="shape"/>
</filter>
</defs>
</svg>
